HIERARCHY
ROOT Hips
{
	OFFSET	0.00	0.00	0.00
	CHANNELS 6 Xposition Yposition Zposition Zrotation Xrotation Yrotation
	JOINT LeftUpLeg
	{
		OFFSET	 0.126116	-0.065224	 0.014019
		CHANNELS 3 Zrotation Xrotation Yrotation
		JOINT LeftLeg
		{
			OFFSET	 0.000000	 0.569914	 0.000000
			CHANNELS 3 Zrotation Xrotation Yrotation
			JOINT LeftFoot
			{
				OFFSET	 0.000000	 0.544423	 0.000000
				CHANNELS 3 Zrotation Xrotation Yrotation
				JOINT LeftToeBase
				{
					OFFSET	 0.000000	 0.207117	 0.000000
					CHANNELS 3 Zrotation Xrotation Yrotation
					End Site
					{
						OFFSET	 0.000000	 0.207117	 0.000000
					}
				}
			}
		}
	}
	JOINT RightUpLeg
	{
		OFFSET	-0.124023	-0.065224	 0.008373
		CHANNELS 3 Zrotation Xrotation Yrotation
		JOINT RightLeg
		{
			OFFSET	 0.000000	 0.570047	 0.000000
			CHANNELS 3 Zrotation Xrotation Yrotation
			JOINT RightFoot
			{
				OFFSET	 0.000000	 0.544354	 0.000000
				CHANNELS 3 Zrotation Xrotation Yrotation
				JOINT RightToeBase
				{
					OFFSET	 0.000000	 0.207540	 0.000000
					CHANNELS 3 Zrotation Xrotation Yrotation
					End Site
					{
						OFFSET	 0.000000	 0.207540	 0.000000
					}
				}
			}
		}
	}
	JOINT Spine
	{
		OFFSET	 0.000184	 0.117403	 0.007763
		CHANNELS 3 Zrotation Xrotation Yrotation
		JOINT Spine1
		{
			OFFSET	 0.000000	 0.137269	 0.000000
			CHANNELS 3 Zrotation Xrotation Yrotation
			JOINT Spine2
			{
				OFFSET	 0.000000	 0.156879	 0.000000
				CHANNELS 3 Zrotation Xrotation Yrotation
				JOINT LeftShoulder
				{
					OFFSET	 0.080501	 0.160143	 0.002496
					CHANNELS 3 Zrotation Xrotation Yrotation
					JOINT LeftArm
					{
						OFFSET	 0.000000	 0.164363	 0.000000
						CHANNELS 3 Zrotation Xrotation Yrotation
						JOINT LeftForeArm
						{
							OFFSET	 0.000000	 0.364576	 0.000000
							CHANNELS 3 Zrotation Xrotation Yrotation
							JOINT LeftHand
							{
								OFFSET	 0.000000	 0.360812	 0.000000
								CHANNELS 3 Zrotation Xrotation Yrotation
								JOINT LeftHandIndex1
								{
									OFFSET	 0.000000	 0.086006	 0.000000
									CHANNELS 3 Zrotation Xrotation Yrotation
									JOINT LeftHandIndex2
									{
										OFFSET	 0.000000	 0.047237	 0.000000
										CHANNELS 3 Zrotation Xrotation Yrotation
										JOINT LeftHandIndex3
										{
											OFFSET	-0.004284	 0.038165	 0.000551
											CHANNELS 3 Zrotation Xrotation Yrotation
											End Site
											{
												OFFSET	-0.004284	 0.038165	 0.000551
											}
										}
									}
								}
							}
						}
					}
				}
				JOINT Neck
				{
					OFFSET	 0.000000	 0.176489	 0.000000
					CHANNELS 3 Zrotation Xrotation Yrotation
					JOINT Head
					{
						OFFSET	 0.000000	 0.077941	 0.001747
						CHANNELS 3 Zrotation Xrotation Yrotation
						End Site
						{
							OFFSET	 0.000000	 0.077941	 0.001747
						}
					}
				}
				JOINT RightShoulder
				{
					OFFSET	-0.080363	 0.159706	-0.000306
					CHANNELS 3 Zrotation Xrotation Yrotation
					JOINT RightArm
					{
						OFFSET	 0.000000	 0.164196	 0.000000
						CHANNELS 3 Zrotation Xrotation Yrotation
						JOINT RightForeArm
						{
							OFFSET	 0.000000	 0.365611	 0.000000
							CHANNELS 3 Zrotation Xrotation Yrotation
							JOINT RightHand
							{
								OFFSET	 0.000000	 0.360648	 0.000000
								CHANNELS 3 Zrotation Xrotation Yrotation
								JOINT RightHandIndex1
								{
									OFFSET	 0.000000	 0.069977	 0.000000
									CHANNELS 3 Zrotation Xrotation Yrotation
									JOINT RightHandIndex2
									{
										OFFSET	 0.000000	 0.052305	 0.000000
										CHANNELS 3 Zrotation Xrotation Yrotation
										JOINT RightHandIndex3
										{
											OFFSET	 0.009002	 0.042196	 0.000782
											CHANNELS 3 Zrotation Xrotation Yrotation
											End Site
											{
												OFFSET	 0.009002	 0.042196	 0.000782
											}
										}
									}
								}
							}
						}
					}
				}
			}
		}
	}
}
MOTION
Frames:    13
Frame Time: 0.03333334
 0.418696	 1.007386	-0.079972	 45.121930	-42.860740	-107.087700	 8.252729	 78.082780	-153.221100	 6.334355	-50.115470	 4.634475	 9.370785	 39.729850	-32.326100	 3.118261	 50.032710	-3.158285	 15.560220	 72.186530	 126.867100	-13.079940	-69.152050	-12.675100	-51.792900	 53.824370	 68.779990	-1.670066	 33.660890	 2.871898	 8.328894	 13.505340	-25.433330	-18.066190	 12.591910	 1.707933	 3.271296	 20.837440	 25.198730	-111.031000	 14.231220	 95.496260	 40.339310	 36.325760	-24.881970	 7.058469	-0.231135	-1.150326	-15.570500	-33.804780	-13.555130	-6.895067	 0.540298	-8.309146	-6.534378	 5.087708	 1.430889	 4.963066	-4.014628	-0.346955	 6.893288	-5.577038	 1.719434	 9.089478	-6.504322	-41.314910	 74.497330	 12.983490	-76.544410	-33.485690	 15.933410	 81.322530	-7.183576	-1.144691	 18.812480	 3.586727	 29.492270	-11.212500	 4.210477	-3.189585	 1.116362	 15.381220	 25.281690	-7.780048	-8.239867	-2.131385	 0.447455
 0.471127	 1.017243	-0.109151	 41.354790	-38.088010	-106.091700	-11.679990	 76.578320	-156.408700	 9.526993	-60.879760	 10.968960	 22.605210	 34.856560	-35.321000	 2.803680	 50.786780	-5.919508	 24.478980	 74.570950	 124.172700	-13.555350	-69.811450	-13.512800	-56.419610	 51.418960	 70.517440	-1.655406	 33.444370	 2.857199	 6.521184	 13.092100	-22.615190	-18.306400	 12.131710	 1.522315	 4.428618	 18.720340	 26.571590	-110.458200	 11.067510	 94.092720	 35.792660	 43.115220	-20.382140	 7.143311	-0.243440	-1.435469	-13.318350	-28.053820	-14.620070	-6.096440	 2.415192	-8.143263	-6.612563	 5.617626	 1.531693	 4.963066	-4.014628	-0.346955	 6.559658	-5.833456	 2.523390	 8.527452	-2.860714	-40.101390	 78.551800	 12.523920	-81.942310	-40.217070	 17.746400	 72.347930	-7.106155	-1.048772	 16.217490	-16.060230	 39.037930	 0.691044	 0.295976	 5.516689	-0.354720	 14.880020	 23.487660	-7.101782	-8.239867	-2.131385	 0.447455
 0.514258	 1.021825	-0.130770	 36.319620	-33.175320	-105.266300	-37.912340	 79.441260	-148.382600	 26.665830	-78.390600	 30.872940	 42.755320	 33.914940	-49.746460	 2.535322	 51.644240	-8.968088	 42.308430	 76.720230	 112.278700	-14.172960	-70.608480	-14.517380	-60.032120	 50.057700	 72.066760	-1.641968	 33.245510	 2.844029	 5.181937	 12.731490	-19.273130	-17.979390	 7.497660	 1.192861	 5.454764	 18.483910	 27.774540	-109.849700	 7.664831	 92.639530	 28.645450	 49.802270	-13.415980	 7.297468	-0.239199	-1.577756	-10.840740	-21.326170	-13.851880	-5.267843	 4.543566	-7.978848	-6.696784	 6.188234	 1.641054	 4.963066	-4.014628	-0.346955	 6.266475	-6.181325	 3.366337	 7.811299	 0.906079	-38.783060	 82.588270	 11.690380	-87.488190	-48.788010	 21.677220	 64.730300	-9.680368	-1.228168	 14.578040	-29.704650	 45.296930	 9.295940	-3.615210	 14.158130	-1.263716	 14.353890	 21.447850	-6.366076	-8.239867	-2.131385	 0.447455
 0.544983	 1.031972	-0.145500	 31.294820	-28.107990	-100.698700	-107.117600	 81.244580	-92.112050	 64.348950	-84.160140	 69.384590	 52.887780	 31.470910	-57.680340	 1.677298	 49.362440	-7.651402	 74.253760	 73.223690	 86.476140	-14.275310	-70.734890	-14.712270	-61.935340	 50.449050	 73.045980	-1.642089	 33.249230	 2.844166	 4.499221	 12.743770	-16.450340	-16.178100	 5.939248	 0.524493	 7.830277	 18.260080	 26.654190	-107.880900	 6.447103	 92.071690	 26.510370	 55.571200	-11.639360	 7.425507	-0.235362	-1.527031	-10.289110	-12.376970	-10.086470	-4.484637	 3.879073	-8.084713	-6.767857	 6.656960	 1.731930	 4.963066	-4.014628	-0.346955	 7.807713	-3.526986	 3.237964	 5.706761	 2.636408	-38.549190	 84.632940	 10.188310	-89.099890	-49.267390	 38.132550	 66.382460	-40.321040	-3.736691	 12.610240	-13.788070	 46.915970	 0.094565	-3.724241	 15.376020	-1.550299	 14.295220	 21.390500	-6.331538	-8.239867	-2.131385	 0.447455
 0.583464	 1.062275	-0.165456	 25.087280	-21.503140	-93.166600	-160.369300	 58.931150	-50.783060	 101.398200	-84.626880	 107.553200	 60.645810	 34.999040	-68.285910	 0.681847	 45.858250	-5.517529	 101.858900	 63.407360	 67.372860	-11.895790	-67.310250	-12.576700	-62.683730	 49.835430	 72.620660	-1.644050	 33.281170	 2.846114	 3.948424	 12.266420	-11.618720	-16.634450	-2.052242	-0.739703	 12.642260	 20.806720	 24.603730	-105.070700	 5.080052	 91.481910	 21.687310	 63.439400	-7.580392	 7.585455	-0.229757	-1.432590	-12.820740	-2.959886	-3.522474	-3.444808	 2.614099	-8.240847	-6.862460	 7.271461	 1.852177	 4.963066	-4.014628	-0.346955	 10.135440	 0.424534	 2.802714	 2.687103	 4.691133	-38.440820	 87.055810	 8.054879	-90.660160	-57.754030	 47.155100	 73.261730	-57.569610	-4.740872	 10.469820	-1.923441	 47.028880	-8.342429	-3.362812	 16.020540	-1.898346	 14.276300	 21.577740	-6.376281	-8.239867	-2.131385	 0.447455
 0.605246	 1.092449	-0.180329	 20.553460	-16.516730	-86.429400	-164.764300	 35.271710	-48.336580	 43.434330	-82.362050	 50.942240	 51.715980	 37.836940	-62.525830	 0.046026	 42.985680	-3.932686	 114.882800	 53.569160	 61.527850	-9.608684	-62.691560	-10.572410	-62.236720	 48.919610	 71.585110	-1.645650	 33.307200	 2.847704	 3.396406	 10.889250	-7.727873	-17.931080	-4.840175	-1.443926	 17.009780	 21.087170	 22.739650	-102.794300	 3.945477	 91.052140	 16.173030	 68.496640	-3.019871	 7.653579	-0.221598	-1.355190	-14.710480	 5.012207	 1.005218	-2.600171	 1.580746	-8.351041	-6.940662	 7.772376	 1.951110	 4.963066	-4.014628	-0.346955	 12.058670	 3.629724	 2.328602	 0.208767	 6.391777	-38.414090	 88.978510	 6.269389	-91.858510	-63.661940	 44.600320	 78.087330	-60.827520	-4.863797	 9.468077	 0.355281	 47.941980	-10.324050	-3.064211	 16.544500	-2.186120	 14.260970	 21.730430	-6.412759	-8.239867	-2.131385	 0.447455
 0.630665	 1.118818	-0.184227	 17.795500	-12.664920	-79.059610	-165.778500	 20.380930	-45.579460	 16.828170	-72.334530	 24.502000	 42.377290	 41.602520	-58.890650	 0.299371	 41.134520	-4.015512	 120.885300	 44.398370	 62.311680	-7.635725	-57.032020	-8.789457	-59.963290	 47.560470	 68.498820	-1.647272	 33.332730	 2.849185	 2.943049	 9.616082	-4.030562	-16.843200	-4.908345	-1.389996	 17.427320	 18.974660	 20.631650	-101.638500	 2.525337	 91.017760	 12.636970	 69.260430	-0.254622	 7.716065	-0.215293	-1.312768	-13.850500	 8.655775	 3.788150	-2.255534	 3.701286	-8.258028	-6.990798	 8.054981	 2.007358	 4.963066	-4.014628	-0.346955	 13.752870	 4.471414	 1.449941	-1.338372	 6.208950	-39.213940	 89.597090	 4.206836	-92.250660	-66.677860	 39.206650	 82.253420	-60.746490	-4.836364	 8.928162	 2.614612	 42.296240	-11.575220	-2.914364	 16.769520	-2.388855	 14.269320	 21.963200	-6.478581	-8.239867	-2.131385	 0.447455
 0.665689	 1.133039	-0.173743	 16.235170	-9.458185	-69.544060	-168.337600	 13.930290	-40.872260	 9.124161	-59.824950	 15.175630	 44.522510	 50.184900	-71.935010	 1.499895	 40.086970	-5.958851	 122.003200	 34.775230	 68.044880	-6.307487	-51.887350	-7.432598	-56.340560	 46.391560	 64.275170	-1.649271	 33.363120	 2.850855	 2.108400	 8.626186	 0.367064	-12.281900	-2.957160	-0.552888	 13.243830	 14.260910	 17.556040	-101.548200	 0.472519	 91.408160	 15.412220	 65.902050	-3.477437	 7.827229	-0.211867	-1.302858	-10.081820	 8.534696	 5.381575	-2.460261	 10.054390	-7.897994	-7.017405	 8.138128	 2.024104	 4.963066	-4.014628	-0.346955	 15.478100	 2.665767	 0.036617	-2.176470	 3.759408	-41.144310	 88.850290	 1.397524	-91.851260	-65.904640	 34.561860	 87.813450	-61.214380	-4.836564	 8.432422	 5.457484	 30.171620	-12.230340	-2.913018	 16.687700	-2.530503	 14.308270	 22.341470	-6.593981	-8.239867	-2.131385	 0.447455
 0.699002	 1.137372	-0.165158	 14.581510	-7.069617	-61.114470	-169.360200	 11.942270	-36.684520	 6.892620	-52.465980	 11.197640	 53.396840	 55.049240	-88.104780	 2.417207	 38.731960	-7.527931	 122.882400	 27.190900	 73.375520	-5.657375	-48.838600	-6.658654	-54.448630	 45.713950	 61.783930	-1.654204	 33.374900	 2.860039	 1.207723	 7.671263	 3.865400	-7.709974	 0.470417	-0.146913	 9.419116	 9.496653	 14.442590	-101.469700	-1.310252	 91.886070	 19.494780	 62.809200	-7.861076	 7.935519	-0.208893	-1.294544	-6.474319	 9.232461	 6.054651	-2.708777	 15.316040	-7.560321	-7.041599	 8.213990	 2.039315	 4.963066	-4.014628	-0.346955	 16.878960	 0.848882	-1.210877	-2.858288	 1.576671	-42.862770	 88.214700	-1.124026	-91.517570	-63.095350	 30.760760	 92.871860	-60.843300	-4.798959	 8.034906	 5.510806	 22.039370	-11.887320	-2.911956	 16.614010	-2.658050	 14.342230	 22.673850	-6.695543	-8.239867	-2.131385	 0.447455
 0.764158	 1.141836	-0.158490	 12.651330	-4.571251	-52.019380	-170.823100	 14.208460	-29.083770	 6.282020	-49.882270	 10.657800	 66.886090	 52.564930	-98.295330	 1.806216	 30.010080	-7.457902	 125.294700	 21.962210	 77.473900	-4.517781	-42.425810	-5.292927	-50.904200	 42.206390	 55.666470	-1.715625	 33.117360	 3.007402	 0.156089	 6.651147	 9.550089	-2.910529	 3.346527	 0.655388	 3.764950	 5.922580	 9.453562	-101.578100	-2.662834	 94.726840	 28.774800	 56.209740	-19.223110	 8.098066	-0.205363	-1.306432	 0.608152	 5.009604	 14.041280	-3.512738	 14.748550	-7.319476	-7.079117	 8.337424	 2.062287	 4.963066	-4.014628	-0.346955	 16.735210	-4.457929	-3.345136	-1.028153	-2.163688	-44.441620	 87.700240	-4.447245	-90.987880	-52.626410	 22.596770	 92.233200	-55.887090	-4.532004	 7.894141	 8.866110	 6.003706	-7.642182	-2.910220	 16.510660	-2.836962	 14.356910	 22.994240	-6.787566	-8.239867	-2.131385	 0.447455
 0.820619	 1.149392	-0.152926	 10.846440	-3.076539	-44.829510	-172.309600	 16.868590	-23.972810	 6.187772	-49.456580	 10.351600	 76.779220	 50.215190	-103.913500	 1.397953	 23.660700	-7.473989	 128.562400	 19.258780	 78.037320	-4.113930	-39.773840	-4.572285	-49.744940	 41.702800	 53.802980	-1.780237	 32.787890	 3.180649	-0.671538	 5.907568	 13.974500	 0.337815	 4.847112	 0.611388	 0.360920	 4.084986	 4.889777	-102.169600	-4.616403	 97.134900	 34.996870	 50.862790	-26.562120	 8.233109	-0.201257	-1.322934	 6.504035	 2.646577	 18.343620	-4.273027	 14.457450	-7.077778	-7.113455	 8.451510	 2.083518	 4.963066	-4.014628	-0.346955	 16.264140	-8.280913	-5.397319	 0.541166	-4.526272	-45.661600	 87.475620	-6.358020	-90.691180	-44.007200	 15.182620	 91.637010	-46.173690	-3.938398	 8.031546	 9.001260	-7.054567	-2.204428	-2.908846	 16.417520	-2.998136	 14.369850	 23.279540	-6.869555	-8.239867	-2.131385	 0.447455
 0.854188	 1.163789	-0.146807	 9.654592	-2.965814	-42.842170	-173.815600	 16.653820	-22.335260	 5.755022	-47.402810	 9.294713	 75.704010	 49.924720	-100.447100	 1.397974	 23.660690	-7.474000	 133.791500	 22.606700	 67.482000	-4.460878	-42.065660	-4.678792	-49.331070	 45.052230	 56.299760	-1.855657	 32.251450	 3.430250	-0.985146	 5.766032	 16.798990	-1.384546	 4.167513	 0.782733	 1.732784	 4.492769	 2.313211	-104.229500	-8.303970	 98.336310	 38.240710	 47.099620	-28.842620	 8.312119	-0.198816	-1.356469	 6.818301	 1.932276	 18.110670	-4.946806	 14.925820	-6.802099	-7.139831	 8.542961	 2.100341	 4.963066	-4.014628	-0.346955	 15.359440	-8.125054	-7.196460	 1.415174	-3.329251	-45.853960	 87.981810	-4.419245	-90.974210	-37.363380	 11.091680	 85.619630	-41.209380	-3.574994	 7.809611	 15.383640	-12.850870	 4.746009	-2.907717	 16.350000	-3.114998	 14.377050	 23.475950	-6.925445	-8.239867	-2.131385	 0.447455
 0.898063	 1.187632	-0.137531	 7.950511	-2.931107	-40.171820	-175.806900	 15.657640	-20.077160	 5.084123	-43.865090	 7.772521	 73.905370	 49.429680	-95.288160	 1.398002	 23.660670	-7.474014	 143.620100	 26.446670	 52.214170	-4.662346	-43.323920	-4.653790	-50.610510	 48.840100	 60.002040	-1.951759	 31.532000	 3.761233	-1.379951	 5.655077	 20.082940	-3.351305	 1.905794	 0.722491	 3.392487	 5.507818	-1.350922	-106.906300	-13.308120	 99.755620	 41.758330	 42.944520	-30.966600	 8.417793	-0.195456	-1.400370	 7.302001	 0.851236	 17.757910	-5.855906	 15.548590	-6.422702	-7.175236	 8.665522	 2.122962	 4.963066	-4.014628	-0.346955	 14.156030	-7.872259	-9.602390	 2.575024	-1.782209	-46.152530	 88.673850	-1.824742	-91.379620	-31.013200	 7.948333	 77.976270	-37.304250	-3.244416	 7.223878	 25.576630	-20.674450	 15.009040	-2.906430	 16.259510	-3.271570	 14.387050	 23.739200	-7.000531	-8.239867	-2.131385	 0.447455
